<?xml version="1.0" encoding="UTF-8" standalone="no"?>
<!DOCTYPE svg PUBLIC "-//W3C//DTD SVG 1.1//EN"
 "http://www.w3.org/Graphics/SVG/1.1/DTD/svg11.dtd">
<!-- Generated by graphviz version 2.47.3 (20210619.2315)
 -->
<!-- Title: snakemake_dag Pages: 1 -->
<svg width="680pt" height="796pt"
 viewBox="0.00 0.00 680.04 796.00" xmlns="http://www.w3.org/2000/svg" xmlns:xlink="http://www.w3.org/1999/xlink">
<g id="graph0" class="graph" transform="scale(1 1) rotate(0) translate(4 792)">
<title>snakemake_dag</title>
<polygon fill="white" stroke="transparent" points="-4,4 -4,-792 676.04,-792 676.04,4 -4,4"/>
<!-- 0 -->
<g id="node1" class="node">
<title>0</title>
<path fill="none" stroke="#59d856" stroke-width="2" d="M311.5,-36C311.5,-36 281.5,-36 281.5,-36 275.5,-36 269.5,-30 269.5,-24 269.5,-24 269.5,-12 269.5,-12 269.5,-6 275.5,0 281.5,0 281.5,0 311.5,0 311.5,0 317.5,0 323.5,-6 323.5,-12 323.5,-12 323.5,-24 323.5,-24 323.5,-30 317.5,-36 311.5,-36"/>
<text text-anchor="middle" x="296.5" y="-15.5" font-family="sans" font-size="10.00">all</text>
</g>
<!-- 1 -->
<g id="node2" class="node">
<title>1</title>
<path fill="none" stroke="#d6d856" stroke-width="2" d="M91,-135C91,-135 12,-135 12,-135 6,-135 0,-129 0,-123 0,-123 0,-84 0,-84 0,-78 6,-72 12,-72 12,-72 91,-72 91,-72 97,-72 103,-78 103,-84 103,-84 103,-123 103,-123 103,-129 97,-135 91,-135"/>
<text text-anchor="middle" x="51.5" y="-123" font-family="sans" font-size="10.00">fastqc</text>
<text text-anchor="middle" x="51.5" y="-112" font-family="sans" font-size="10.00">lane: 1</text>
<text text-anchor="middle" x="51.5" y="-101" font-family="sans" font-size="10.00">run: 1</text>
<text text-anchor="middle" x="51.5" y="-90" font-family="sans" font-size="10.00">sample: NA12878</text>
<text text-anchor="middle" x="51.5" y="-79" font-family="sans" font-size="10.00">unit: N</text>
</g>
<!-- 1&#45;&gt;0 -->
<g id="edge1" class="edge">
<title>1&#45;&gt;0</title>
<path fill="none" stroke="grey" stroke-width="2" d="M103.08,-77.8C107.92,-75.75 112.78,-73.78 117.5,-72 165.74,-53.82 223.13,-37.77 259.68,-28.23"/>
<polygon fill="grey" stroke="grey" stroke-width="2" points="260.61,-31.6 269.41,-25.71 258.85,-24.82 260.61,-31.6"/>
</g>
<!-- 2 -->
<g id="node3" class="node">
<title>2</title>
<path fill="none" stroke="#56d89a" stroke-width="2" d="M293,-423C293,-423 180,-423 180,-423 174,-423 168,-417 168,-411 168,-411 168,-399 168,-399 168,-393 174,-387 180,-387 180,-387 293,-387 293,-387 299,-387 305,-393 305,-399 305,-399 305,-411 305,-411 305,-417 299,-423 293,-423"/>
<text text-anchor="middle" x="236.5" y="-402.5" font-family="sans" font-size="10.00">collect_multiple_metrics</text>
</g>
<!-- 2&#45;&gt;0 -->
<g id="edge2" class="edge">
<title>2&#45;&gt;0</title>
<path fill="none" stroke="grey" stroke-width="2" d="M212.15,-386.87C181.13,-362.84 131.5,-315.96 131.5,-262 131.5,-262 131.5,-262 131.5,-188 131.5,-133.17 135.9,-111.91 173.5,-72 196.41,-47.69 232.33,-33.97 259.46,-26.62"/>
<polygon fill="grey" stroke="grey" stroke-width="2" points="260.54,-29.95 269.38,-24.1 258.82,-23.17 260.54,-29.95"/>
</g>
<!-- 3 -->
<g id="node4" class="node">
<title>3</title>
<path fill="none" stroke="#567bd8" stroke-width="2" d="M419.5,-639C419.5,-639 389.5,-639 389.5,-639 383.5,-639 377.5,-633 377.5,-627 377.5,-627 377.5,-615 377.5,-615 377.5,-609 383.5,-603 389.5,-603 389.5,-603 419.5,-603 419.5,-603 425.5,-603 431.5,-609 431.5,-615 431.5,-615 431.5,-627 431.5,-627 431.5,-633 425.5,-639 419.5,-639"/>
<text text-anchor="middle" x="404.5" y="-618.5" font-family="sans" font-size="10.00">bwa</text>
</g>
<!-- 3&#45;&gt;2 -->
<g id="edge8" class="edge">
<title>3&#45;&gt;2</title>
<path fill="none" stroke="grey" stroke-width="2" d="M391.04,-602.85C361.48,-565.21 290.83,-475.2 256.24,-431.15"/>
<polygon fill="grey" stroke="grey" stroke-width="2" points="258.96,-428.94 250.03,-423.23 253.45,-433.26 258.96,-428.94"/>
</g>
<!-- 10 -->
<g id="node11" class="node">
<title>10</title>
<path fill="none" stroke="#d87556" stroke-width="2" d="M429,-495C429,-495 384,-495 384,-495 378,-495 372,-489 372,-483 372,-483 372,-471 372,-471 372,-465 378,-459 384,-459 384,-459 429,-459 429,-459 435,-459 441,-465 441,-471 441,-471 441,-483 441,-483 441,-489 435,-495 429,-495"/>
<text text-anchor="middle" x="406.5" y="-480" font-family="sans" font-size="10.00">split_bam</text>
<text text-anchor="middle" x="406.5" y="-469" font-family="sans" font-size="10.00">locus: chr1</text>
</g>
<!-- 3&#45;&gt;10 -->
<g id="edge16" class="edge">
<title>3&#45;&gt;10</title>
<path fill="none" stroke="grey" stroke-width="2" d="M399.09,-602.53C396.2,-592.29 392.95,-579.04 391.5,-567 389.58,-551.12 389.3,-546.85 391.5,-531 392.68,-522.48 394.89,-513.39 397.25,-505.2"/>
<polygon fill="grey" stroke="grey" stroke-width="2" points="400.67,-505.99 400.26,-495.41 393.98,-503.94 400.67,-505.99"/>
</g>
<!-- 11 -->
<g id="node12" class="node">
<title>11</title>
<path fill="none" stroke="#d89556" stroke-width="2" d="M460,-567C460,-567 413,-567 413,-567 407,-567 401,-561 401,-555 401,-555 401,-543 401,-543 401,-537 407,-531 413,-531 413,-531 460,-531 460,-531 466,-531 472,-537 472,-543 472,-543 472,-555 472,-555 472,-561 466,-567 460,-567"/>
<text text-anchor="middle" x="436.5" y="-546.5" font-family="sans" font-size="10.00">index_bam</text>
</g>
<!-- 3&#45;&gt;11 -->
<g id="edge18" class="edge">
<title>3&#45;&gt;11</title>
<path fill="none" stroke="grey" stroke-width="2" d="M412.41,-602.7C416.05,-594.73 420.45,-585.1 424.49,-576.26"/>
<polygon fill="grey" stroke="grey" stroke-width="2" points="427.71,-577.65 428.68,-567.1 421.34,-574.74 427.71,-577.65"/>
</g>
<!-- 14 -->
<g id="node15" class="node">
<title>14</title>
<path fill="none" stroke="#56d8b9" stroke-width="2" d="M521,-495C521,-495 480,-495 480,-495 474,-495 468,-489 468,-483 468,-483 468,-471 468,-471 468,-465 474,-459 480,-459 480,-459 521,-459 521,-459 527,-459 533,-465 533,-471 533,-471 533,-483 533,-483 533,-489 527,-495 521,-495"/>
<text text-anchor="middle" x="500.5" y="-474.5" font-family="sans" font-size="10.00">mosdepth</text>
</g>
<!-- 3&#45;&gt;14 -->
<g id="edge21" class="edge">
<title>3&#45;&gt;14</title>
<path fill="none" stroke="grey" stroke-width="2" d="M431.64,-607.55C448.22,-598.58 468.48,-584.89 480.5,-567 492.81,-548.67 497.64,-523.91 499.49,-505.16"/>
<polygon fill="grey" stroke="grey" stroke-width="2" points="502.98,-505.41 500.26,-495.17 496,-504.88 502.98,-505.41"/>
</g>
<!-- 4 -->
<g id="node5" class="node">
<title>4</title>
<path fill="none" stroke="#56d87b" stroke-width="2" d="M422,-711C422,-711 387,-711 387,-711 381,-711 375,-705 375,-699 375,-699 375,-687 375,-687 375,-681 381,-675 387,-675 387,-675 422,-675 422,-675 428,-675 434,-681 434,-687 434,-687 434,-699 434,-699 434,-705 428,-711 422,-711"/>
<text text-anchor="middle" x="404.5" y="-690.5" font-family="sans" font-size="10.00">cutadapt</text>
</g>
<!-- 4&#45;&gt;3 -->
<g id="edge9" class="edge">
<title>4&#45;&gt;3</title>
<path fill="none" stroke="grey" stroke-width="2" d="M404.5,-674.7C404.5,-666.98 404.5,-657.71 404.5,-649.11"/>
<polygon fill="grey" stroke="grey" stroke-width="2" points="408,-649.1 404.5,-639.1 401,-649.1 408,-649.1"/>
</g>
<!-- 5 -->
<g id="node6" class="node">
<title>5</title>
<path fill="none" stroke="#56b9d8" stroke-width="2" d="M444,-788C444,-788 365,-788 365,-788 359,-788 353,-782 353,-776 353,-776 353,-759 353,-759 353,-753 359,-747 365,-747 365,-747 444,-747 444,-747 450,-747 456,-753 456,-759 456,-759 456,-776 456,-776 456,-782 450,-788 444,-788"/>
<text text-anchor="middle" x="404.5" y="-776" font-family="sans" font-size="10.00">combine_fq</text>
<text text-anchor="middle" x="404.5" y="-765" font-family="sans" font-size="10.00">sample: NA12878</text>
<text text-anchor="middle" x="404.5" y="-754" font-family="sans" font-size="10.00">unit: N</text>
</g>
<!-- 5&#45;&gt;4 -->
<g id="edge10" class="edge">
<title>5&#45;&gt;4</title>
<path fill="none" stroke="grey" stroke-width="2" d="M404.5,-746.69C404.5,-738.91 404.5,-729.84 404.5,-721.45"/>
<polygon fill="grey" stroke="grey" stroke-width="2" points="408,-721.32 404.5,-711.32 401,-721.32 408,-721.32"/>
</g>
<!-- 6 -->
<g id="node7" class="node">
<title>6</title>
<path fill="none" stroke="#b6d856" stroke-width="2" d="M383,-121.5C383,-121.5 210,-121.5 210,-121.5 204,-121.5 198,-115.5 198,-109.5 198,-109.5 198,-97.5 198,-97.5 198,-91.5 204,-85.5 210,-85.5 210,-85.5 383,-85.5 383,-85.5 389,-85.5 395,-91.5 395,-97.5 395,-97.5 395,-109.5 395,-109.5 395,-115.5 389,-121.5 383,-121.5"/>
<text text-anchor="middle" x="296.5" y="-101" font-family="sans" font-size="10.00">collect_alignment_summary_metrics</text>
</g>
<!-- 6&#45;&gt;0 -->
<g id="edge3" class="edge">
<title>6&#45;&gt;0</title>
<path fill="none" stroke="grey" stroke-width="2" d="M296.5,-85.2C296.5,-74 296.5,-59.19 296.5,-46.41"/>
<polygon fill="grey" stroke="grey" stroke-width="2" points="300,-46.28 296.5,-36.28 293,-46.28 300,-46.28"/>
</g>
<!-- 7 -->
<g id="node8" class="node">
<title>7</title>
<path fill="none" stroke="#78d856" stroke-width="2" d="M422,-207C422,-207 345,-207 345,-207 339,-207 333,-201 333,-195 333,-195 333,-183 333,-183 333,-177 339,-171 345,-171 345,-171 422,-171 422,-171 428,-171 434,-177 434,-183 434,-183 434,-195 434,-195 434,-201 428,-207 422,-207"/>
<text text-anchor="middle" x="383.5" y="-186.5" font-family="sans" font-size="10.00">gather_bam_files</text>
</g>
<!-- 7&#45;&gt;0 -->
<g id="edge5" class="edge">
<title>7&#45;&gt;0</title>
<path fill="none" stroke="grey" stroke-width="2" d="M332.82,-181.24C281.09,-173.18 205.97,-157.85 188.5,-135 171.49,-112.76 173.69,-95.76 188.5,-72 203.94,-47.23 234.7,-33.71 259.46,-26.54"/>
<polygon fill="grey" stroke="grey" stroke-width="2" points="260.53,-29.87 269.3,-23.92 258.73,-23.11 260.53,-29.87"/>
</g>
<!-- 7&#45;&gt;6 -->
<g id="edge11" class="edge">
<title>7&#45;&gt;6</title>
<path fill="none" stroke="grey" stroke-width="2" d="M365.47,-170.7C352.88,-158.61 335.88,-142.29 321.91,-128.88"/>
<polygon fill="grey" stroke="grey" stroke-width="2" points="324.14,-126.18 314.5,-121.78 319.29,-131.23 324.14,-126.18"/>
</g>
<!-- 13 -->
<g id="node14" class="node">
<title>13</title>
<path fill="none" stroke="#56d8d8" stroke-width="2" d="M517.5,-121.5C517.5,-121.5 425.5,-121.5 425.5,-121.5 419.5,-121.5 413.5,-115.5 413.5,-109.5 413.5,-109.5 413.5,-97.5 413.5,-97.5 413.5,-91.5 419.5,-85.5 425.5,-85.5 425.5,-85.5 517.5,-85.5 517.5,-85.5 523.5,-85.5 529.5,-91.5 529.5,-97.5 529.5,-97.5 529.5,-109.5 529.5,-109.5 529.5,-115.5 523.5,-121.5 517.5,-121.5"/>
<text text-anchor="middle" x="471.5" y="-101" font-family="sans" font-size="10.00">collect_wgs_metrics</text>
</g>
<!-- 7&#45;&gt;13 -->
<g id="edge20" class="edge">
<title>7&#45;&gt;13</title>
<path fill="none" stroke="grey" stroke-width="2" d="M401.73,-170.7C414.48,-158.61 431.67,-142.29 445.8,-128.88"/>
<polygon fill="grey" stroke="grey" stroke-width="2" points="448.44,-131.2 453.29,-121.78 443.63,-126.12 448.44,-131.2"/>
</g>
<!-- 15 -->
<g id="node16" class="node">
<title>15</title>
<path fill="none" stroke="#97d856" stroke-width="2" d="M627,-121.5C627,-121.5 560,-121.5 560,-121.5 554,-121.5 548,-115.5 548,-109.5 548,-109.5 548,-97.5 548,-97.5 548,-91.5 554,-85.5 560,-85.5 560,-85.5 627,-85.5 627,-85.5 633,-85.5 639,-91.5 639,-97.5 639,-97.5 639,-109.5 639,-109.5 639,-115.5 633,-121.5 627,-121.5"/>
<text text-anchor="middle" x="593.5" y="-101" font-family="sans" font-size="10.00">samtools_stats</text>
</g>
<!-- 7&#45;&gt;15 -->
<g id="edge23" class="edge">
<title>7&#45;&gt;15</title>
<path fill="none" stroke="grey" stroke-width="2" d="M434.27,-173.14C464.96,-163.54 504.58,-150.06 538.5,-135 544.26,-132.44 550.22,-129.48 556,-126.44"/>
<polygon fill="grey" stroke="grey" stroke-width="2" points="557.75,-129.47 564.87,-121.63 554.42,-123.32 557.75,-129.47"/>
</g>
<!-- 8 -->
<g id="node9" class="node">
<title>8</title>
<path fill="none" stroke="#569ad8" stroke-width="2" d="M406.5,-279C406.5,-279 360.5,-279 360.5,-279 354.5,-279 348.5,-273 348.5,-267 348.5,-267 348.5,-255 348.5,-255 348.5,-249 354.5,-243 360.5,-243 360.5,-243 406.5,-243 406.5,-243 412.5,-243 418.5,-249 418.5,-255 418.5,-255 418.5,-267 418.5,-267 418.5,-273 412.5,-279 406.5,-279"/>
<text text-anchor="middle" x="383.5" y="-258.5" font-family="sans" font-size="10.00">apply_bqsr</text>
</g>
<!-- 8&#45;&gt;7 -->
<g id="edge12" class="edge">
<title>8&#45;&gt;7</title>
<path fill="none" stroke="grey" stroke-width="2" d="M383.5,-242.7C383.5,-234.98 383.5,-225.71 383.5,-217.11"/>
<polygon fill="grey" stroke="grey" stroke-width="2" points="387,-217.1 383.5,-207.1 380,-217.1 387,-217.1"/>
</g>
<!-- 9 -->
<g id="node10" class="node">
<title>9</title>
<path fill="none" stroke="#d8b456" stroke-width="2" d="M443.5,-423C443.5,-423 369.5,-423 369.5,-423 363.5,-423 357.5,-417 357.5,-411 357.5,-411 357.5,-399 357.5,-399 357.5,-393 363.5,-387 369.5,-387 369.5,-387 443.5,-387 443.5,-387 449.5,-387 455.5,-393 455.5,-399 455.5,-399 455.5,-411 455.5,-411 455.5,-417 449.5,-423 443.5,-423"/>
<text text-anchor="middle" x="406.5" y="-402.5" font-family="sans" font-size="10.00">mark_duplicates</text>
</g>
<!-- 9&#45;&gt;8 -->
<g id="edge13" class="edge">
<title>9&#45;&gt;8</title>
<path fill="none" stroke="grey" stroke-width="2" d="M387.46,-386.84C378.32,-377.3 368.33,-364.62 363.5,-351 356.22,-330.47 362.53,-306.31 369.94,-288.35"/>
<polygon fill="grey" stroke="grey" stroke-width="2" points="373.2,-289.63 374.08,-279.07 366.81,-286.77 373.2,-289.63"/>
</g>
<!-- 12 -->
<g id="node13" class="node">
<title>12</title>
<path fill="none" stroke="#d85656" stroke-width="2" d="M462,-351C462,-351 385,-351 385,-351 379,-351 373,-345 373,-339 373,-339 373,-327 373,-327 373,-321 379,-315 385,-315 385,-315 462,-315 462,-315 468,-315 474,-321 474,-327 474,-327 474,-339 474,-339 474,-345 468,-351 462,-351"/>
<text text-anchor="middle" x="423.5" y="-330.5" font-family="sans" font-size="10.00">base_recalibrator</text>
</g>
<!-- 9&#45;&gt;12 -->
<g id="edge19" class="edge">
<title>9&#45;&gt;12</title>
<path fill="none" stroke="grey" stroke-width="2" d="M410.7,-386.7C412.6,-378.9 414.88,-369.51 416.98,-360.83"/>
<polygon fill="grey" stroke="grey" stroke-width="2" points="420.39,-361.65 419.35,-351.1 413.58,-360 420.39,-361.65"/>
</g>
<!-- 10&#45;&gt;9 -->
<g id="edge15" class="edge">
<title>10&#45;&gt;9</title>
<path fill="none" stroke="grey" stroke-width="2" d="M406.5,-458.7C406.5,-450.98 406.5,-441.71 406.5,-433.11"/>
<polygon fill="grey" stroke="grey" stroke-width="2" points="410,-433.1 406.5,-423.1 403,-433.1 410,-433.1"/>
</g>
<!-- 11&#45;&gt;10 -->
<g id="edge17" class="edge">
<title>11&#45;&gt;10</title>
<path fill="none" stroke="grey" stroke-width="2" d="M429.08,-530.7C425.71,-522.81 421.63,-513.3 417.88,-504.55"/>
<polygon fill="grey" stroke="grey" stroke-width="2" points="420.99,-502.92 413.83,-495.1 414.55,-505.67 420.99,-502.92"/>
</g>
<!-- 11&#45;&gt;14 -->
<g id="edge22" class="edge">
<title>11&#45;&gt;14</title>
<path fill="none" stroke="grey" stroke-width="2" d="M452.32,-530.7C460.07,-522.22 469.54,-511.86 478.02,-502.58"/>
<polygon fill="grey" stroke="grey" stroke-width="2" points="480.7,-504.85 484.86,-495.1 475.53,-500.12 480.7,-504.85"/>
</g>
<!-- 12&#45;&gt;8 -->
<g id="edge14" class="edge">
<title>12&#45;&gt;8</title>
<path fill="none" stroke="grey" stroke-width="2" d="M413.61,-314.7C409.01,-306.64 403.44,-296.89 398.35,-287.98"/>
<polygon fill="grey" stroke="grey" stroke-width="2" points="401.27,-286.05 393.27,-279.1 395.2,-289.52 401.27,-286.05"/>
</g>
<!-- 13&#45;&gt;0 -->
<g id="edge4" class="edge">
<title>13&#45;&gt;0</title>
<path fill="none" stroke="grey" stroke-width="2" d="M435.66,-85.4C405.71,-71.11 363.16,-50.81 333.02,-36.42"/>
<polygon fill="grey" stroke="grey" stroke-width="2" points="334.23,-33.12 323.7,-31.98 331.21,-39.44 334.23,-33.12"/>
</g>
<!-- 14&#45;&gt;0 -->
<g id="edge6" class="edge">
<title>14&#45;&gt;0</title>
<path fill="none" stroke="grey" stroke-width="2" d="M533.1,-465.09C581.7,-446.51 667.5,-403.84 667.5,-334 667.5,-334 667.5,-334 667.5,-188 667.5,-135.76 685.68,-108.7 648.5,-72 604.62,-28.68 415.29,-20.69 333.91,-19.28"/>
<polygon fill="grey" stroke="grey" stroke-width="2" points="333.67,-15.77 323.62,-19.12 333.57,-22.77 333.67,-15.77"/>
</g>
<!-- 15&#45;&gt;0 -->
<g id="edge7" class="edge">
<title>15&#45;&gt;0</title>
<path fill="none" stroke="grey" stroke-width="2" d="M566.27,-85.35C557.64,-80.48 547.9,-75.55 538.5,-72 468.59,-45.61 382.1,-30.63 333.74,-23.72"/>
<polygon fill="grey" stroke="grey" stroke-width="2" points="334.12,-20.24 323.73,-22.33 333.15,-27.18 334.12,-20.24"/>
</g>
</g>
</svg>
